<mxfile host="app.diagrams.net" modified="2024-01-25T20:16:21.197Z" agent="Mozilla/5.0 (Windows NT 10.0; Win64; x64) AppleWebKit/537.36 (KHTML, like Gecko) Chrome/120.0.0.0 Safari/537.36 Edg/120.0.0.0" etag="EO_NrJgPhqoT_4uCiJsc" version="23.0.1" type="device">
  <diagram name="Page-1" id="3xO3xfFoqx-NOM3CqKLK">
    <mxGraphModel dx="1970" dy="996" grid="1" gridSize="10" guides="1" tooltips="1" connect="1" arrows="1" fold="1" page="1" pageScale="1" pageWidth="850" pageHeight="1100" math="0" shadow="0">
      <root>
        <mxCell id="0" />
        <mxCell id="1" parent="0" />
        <mxCell id="nIBGIonTr90-XZiyxsAD-3" value="forklift" style="edgeStyle=orthogonalEdgeStyle;rounded=0;orthogonalLoop=1;jettySize=auto;html=1;" parent="1" source="nIBGIonTr90-XZiyxsAD-1" target="nIBGIonTr90-XZiyxsAD-2" edge="1">
          <mxGeometry relative="1" as="geometry" />
        </mxCell>
        <mxCell id="nIBGIonTr90-XZiyxsAD-1" value="inbound trailer" style="whiteSpace=wrap;html=1;aspect=fixed;" parent="1" vertex="1">
          <mxGeometry x="1120" y="120" width="80" height="80" as="geometry" />
        </mxCell>
        <mxCell id="nIBGIonTr90-XZiyxsAD-5" value="person" style="edgeStyle=orthogonalEdgeStyle;rounded=0;orthogonalLoop=1;jettySize=auto;html=1;" parent="1" source="nIBGIonTr90-XZiyxsAD-2" target="nIBGIonTr90-XZiyxsAD-4" edge="1">
          <mxGeometry relative="1" as="geometry">
            <mxPoint as="offset" />
          </mxGeometry>
        </mxCell>
        <mxCell id="nIBGIonTr90-XZiyxsAD-2" value="unloading" style="whiteSpace=wrap;html=1;aspect=fixed;" parent="1" vertex="1">
          <mxGeometry x="1120" y="310" width="80" height="80" as="geometry" />
        </mxCell>
        <mxCell id="nIBGIonTr90-XZiyxsAD-10" value="large cart" style="edgeStyle=orthogonalEdgeStyle;rounded=0;orthogonalLoop=1;jettySize=auto;html=1;" parent="1" source="nIBGIonTr90-XZiyxsAD-4" target="nIBGIonTr90-XZiyxsAD-9" edge="1">
          <mxGeometry relative="1" as="geometry" />
        </mxCell>
        <mxCell id="nIBGIonTr90-XZiyxsAD-4" value="autostorage" style="whiteSpace=wrap;html=1;aspect=fixed;" parent="1" vertex="1">
          <mxGeometry x="860" y="480" width="80" height="80" as="geometry" />
        </mxCell>
        <mxCell id="nIBGIonTr90-XZiyxsAD-12" value="forklift" style="edgeStyle=orthogonalEdgeStyle;rounded=0;orthogonalLoop=1;jettySize=auto;html=1;" parent="1" source="nIBGIonTr90-XZiyxsAD-7" target="nIBGIonTr90-XZiyxsAD-11" edge="1">
          <mxGeometry relative="1" as="geometry" />
        </mxCell>
        <mxCell id="nIBGIonTr90-XZiyxsAD-7" value="box storage" style="whiteSpace=wrap;html=1;aspect=fixed;" parent="1" vertex="1">
          <mxGeometry x="390" y="730" width="80" height="80" as="geometry" />
        </mxCell>
        <mxCell id="nIBGIonTr90-XZiyxsAD-16" value="person" style="edgeStyle=orthogonalEdgeStyle;rounded=0;orthogonalLoop=1;jettySize=auto;html=1;" parent="1" source="nIBGIonTr90-XZiyxsAD-9" target="nIBGIonTr90-XZiyxsAD-15" edge="1">
          <mxGeometry relative="1" as="geometry" />
        </mxCell>
        <mxCell id="nIBGIonTr90-XZiyxsAD-9" value="order packing" style="whiteSpace=wrap;html=1;aspect=fixed;" parent="1" vertex="1">
          <mxGeometry x="610" y="480" width="80" height="80" as="geometry" />
        </mxCell>
        <mxCell id="nIBGIonTr90-XZiyxsAD-11" value="box maker" style="whiteSpace=wrap;html=1;aspect=fixed;" parent="1" vertex="1">
          <mxGeometry x="610" y="730" width="80" height="80" as="geometry" />
        </mxCell>
        <mxCell id="nIBGIonTr90-XZiyxsAD-19" value="small cart" style="edgeStyle=orthogonalEdgeStyle;rounded=0;orthogonalLoop=1;jettySize=auto;html=1;entryX=0.5;entryY=1;entryDx=0;entryDy=0;exitX=1;exitY=0.5;exitDx=0;exitDy=0;" parent="1" source="nIBGIonTr90-XZiyxsAD-11" target="nIBGIonTr90-XZiyxsAD-9" edge="1">
          <mxGeometry relative="1" as="geometry">
            <mxPoint x="920" y="480" as="sourcePoint" />
          </mxGeometry>
        </mxCell>
        <mxCell id="nIBGIonTr90-XZiyxsAD-18" value="person" style="edgeStyle=orthogonalEdgeStyle;rounded=0;orthogonalLoop=1;jettySize=auto;html=1;" parent="1" source="nIBGIonTr90-XZiyxsAD-15" target="nIBGIonTr90-XZiyxsAD-17" edge="1">
          <mxGeometry relative="1" as="geometry" />
        </mxCell>
        <mxCell id="nIBGIonTr90-XZiyxsAD-15" value="order labeling" style="whiteSpace=wrap;html=1;aspect=fixed;" parent="1" vertex="1">
          <mxGeometry x="250" y="350" width="80" height="80" as="geometry" />
        </mxCell>
        <mxCell id="nIBGIonTr90-XZiyxsAD-17" value="outbound trailer" style="whiteSpace=wrap;html=1;aspect=fixed;" parent="1" vertex="1">
          <mxGeometry x="250" y="120" width="80" height="80" as="geometry" />
        </mxCell>
        <mxCell id="nIBGIonTr90-XZiyxsAD-22" value="camera:camera" style="swimlane;whiteSpace=wrap;html=1;fillColor=#ffe6cc;strokeColor=#d79b00;startSize=23;" parent="1" vertex="1">
          <mxGeometry x="50" y="40" width="1240" height="810" as="geometry" />
        </mxCell>
        <mxCell id="L7VvYOiDV8d7aw7r_GPf-1" value="roi:outbound shipping" style="swimlane;whiteSpace=wrap;html=1;" vertex="1" parent="nIBGIonTr90-XZiyxsAD-22">
          <mxGeometry x="140" y="40" width="200" height="210" as="geometry" />
        </mxCell>
        <mxCell id="L7VvYOiDV8d7aw7r_GPf-2" value="roi:order labelling" style="swimlane;whiteSpace=wrap;html=1;" vertex="1" parent="nIBGIonTr90-XZiyxsAD-22">
          <mxGeometry x="155" y="260" width="190" height="190" as="geometry" />
        </mxCell>
        <mxCell id="L7VvYOiDV8d7aw7r_GPf-4" value="roi:autostorage" style="swimlane;whiteSpace=wrap;html=1;" vertex="1" parent="nIBGIonTr90-XZiyxsAD-22">
          <mxGeometry x="770" y="390" width="160" height="160" as="geometry" />
        </mxCell>
        <mxCell id="L7VvYOiDV8d7aw7r_GPf-3" value="roi:inbound shipping" style="swimlane;whiteSpace=wrap;html=1;" vertex="1" parent="nIBGIonTr90-XZiyxsAD-22">
          <mxGeometry x="1020" y="40" width="190" height="360" as="geometry" />
        </mxCell>
        <mxCell id="L7VvYOiDV8d7aw7r_GPf-5" value="roi:order packing" style="swimlane;whiteSpace=wrap;html=1;" vertex="1" parent="nIBGIonTr90-XZiyxsAD-22">
          <mxGeometry x="530" y="400" width="160" height="160" as="geometry" />
        </mxCell>
      </root>
    </mxGraphModel>
  </diagram>
</mxfile>
